HIERARCHY
ROOT Pelvis
{
	OFFSET 0.000000 0.000000 0.000000
	CHANNELS 6 Xposition Yposition Zposition Zrotation Yrotation Xrotation 
	JOINT Left_hip
	{
		OFFSET 0.076090 -0.089427 -0.010735
		CHANNELS 3 Zrotation Yrotation Xrotation
		JOINT Left_knee
		{
			OFFSET 0.030200 -0.359518 -0.003501
			CHANNELS 3 Zrotation Yrotation Xrotation
			JOINT Left_ankle
			{
				OFFSET -0.011005 -0.371022 -0.045888
				CHANNELS 3 Zrotation Yrotation Xrotation
				JOINT Left_foot
				{
					OFFSET 0.023930 -0.052103 0.111084
					CHANNELS 3 Zrotation Yrotation Xrotation
					End Site
					{
						OFFSET 0.000000 0.000000 0.000000
					}
				}
			}
		}
	}
	JOINT Right_hip
	{
		OFFSET -0.073836 -0.088112 -0.007709
		CHANNELS 3 Zrotation Yrotation Xrotation
		JOINT Right_knee
		{
			OFFSET -0.035715 -0.367809 -0.006536
			CHANNELS 3 Zrotation Yrotation Xrotation
			JOINT Right_ankle
			{
				OFFSET 0.013718 -0.371958 -0.043815
				CHANNELS 3 Zrotation Yrotation Xrotation
				JOINT Right_foot
				{
					OFFSET -0.021936 -0.046387 0.114542
					CHANNELS 3 Zrotation Yrotation Xrotation
					End Site
					{
						OFFSET 0.000000 0.000000 0.000000
					}
				}
			}
		}
	}
	JOINT Spine1
	{
		OFFSET -0.001865 0.102064 -0.019455
		CHANNELS 3 Zrotation Yrotation Xrotation
		JOINT Spine2
		{
			OFFSET 0.003082 0.129260 -0.001938
			CHANNELS 3 Zrotation Yrotation Xrotation
			JOINT Spine3
			{
				OFFSET 0.001104 0.048093 0.026561
				CHANNELS 3 Zrotation Yrotation Xrotation
				JOINT Neck
				{
					OFFSET -0.002010 0.204222 -0.047183
					CHANNELS 3 Zrotation Yrotation Xrotation
					JOINT Head
					{
						OFFSET 0.005050 0.063649 0.048489
						CHANNELS 3 Zrotation Yrotation Xrotation
						End Site
						{
							OFFSET 0.000000 0.000000 0.000000
						}
					}
				}
				JOINT Left_collar
				{
					OFFSET 0.072979 0.114065 -0.031633
					CHANNELS 3 Zrotation Yrotation Xrotation
					JOINT Left_shoulder
					{
						OFFSET 0.083419 0.032092 -0.006530
						CHANNELS 3 Zrotation Yrotation Xrotation
						JOINT Left_elbow
						{
							OFFSET 0.239393 -0.012014 -0.025060
							CHANNELS 3 Zrotation Yrotation Xrotation
							JOINT Left_wrist
							{
								OFFSET 0.227297 0.008116 0.000384
								CHANNELS 3 Zrotation Yrotation Xrotation
								JOINT Left_palm
								{
									OFFSET 0.074607 -0.009248 -0.012277
									CHANNELS 3 Zrotation Yrotation Xrotation
									End Site
									{
										OFFSET 0.000000 0.000000 0.000000
									}
								}
							}
						}
					}
				}
				JOINT Right_collar
				{
					OFFSET -0.074980 0.111880 -0.037894
					CHANNELS 3 Zrotation Yrotation Xrotation
					JOINT Right_shoulder
					{
						OFFSET -0.087565 0.034353 -0.009323
						CHANNELS 3 Zrotation Yrotation Xrotation
						JOINT Right_elbow
						{
							OFFSET -0.236838 -0.013719 -0.019794
							CHANNELS 3 Zrotation Yrotation Xrotation
							JOINT Right_wrist
							{
								OFFSET -0.235053 0.006433 -0.003853
								CHANNELS 3 Zrotation Yrotation Xrotation
								JOINT Right_palm
								{
									OFFSET -0.075499 -0.006894 -0.009792
									CHANNELS 3 Zrotation Yrotation Xrotation
									End Site
									{
										OFFSET 0.000000 0.000000 0.000000
									}
								}
							}
						}
					}
				}
			}
		}
	}
}
MOTION
Frames: 9
Frame Time: 0.100000
0.247068 -0.026908 -0.002860 171.620798 37.368293 -19.705146 2.120021 3.739435 11.280081 -2.351950 -8.999626 -5.908959 -7.834838 13.351123 -6.304274 10.724341 5.597749 3.612546 1.134844 -1.209155 4.491008 3.664126 5.861217 -3.516882 9.565193 -15.223505 -5.642998 -13.556599 16.329339 0.068055 0.441295 3.601389 5.317641 5.352404 -4.326996 1.671676 3.380058 1.329865 0.425340 0.476847 -0.368602 -5.819573 0.522968 -20.869112 7.822522 1.411186 -19.942264 -8.122358 3.613573 -9.196155 -22.186527 3.815774 -2.112981 -56.560122 9.927869 -1.069402 -11.953219 -9.369755 -0.275196 -6.669441 14.239586 28.605372 -4.637002 46.551657 22.091970 25.641134 -15.907040 74.741380 -13.717865 -2.859427 8.353544 -37.180516 8.030555 4.378467 -0.058100 
0.248723 -0.025858 -0.004723 172.023195 33.981397 -18.331202 2.199223 4.802263 10.348780 -2.438493 -7.883329 -5.805297 -7.267691 15.487103 -6.937041 9.144237 2.424493 3.860192 1.544327 -0.242527 2.741038 3.748988 8.272968 -3.086678 11.129100 -15.367453 -6.072904 -15.758917 16.959237 0.941462 0.071874 2.661966 6.233081 6.097946 -5.163686 1.012308 3.429371 -0.056629 0.713663 -0.850911 -11.116825 -7.869115 3.450292 -29.328960 3.594293 -1.428044 -17.188505 -6.474402 3.925569 -6.132117 -20.922926 2.181879 -1.716577 -54.907049 11.999341 -0.062170 -10.823670 -11.947175 -1.400585 -8.525930 16.918838 22.758432 -3.829874 37.056447 10.205870 18.454536 -22.855571 69.564421 -24.989001 -5.601921 7.946596 -39.276413 10.533100 4.961418 -1.786650 
0.249120 -0.025043 -0.006183 172.689746 30.115449 -16.845326 2.199718 5.426745 9.961454 -2.764623 -5.950767 -6.450759 -6.942236 17.504662 -7.382320 8.326922 -0.684750 4.060808 1.766058 0.494566 1.252987 3.939327 10.838893 -3.001905 12.799025 -15.341815 -6.488396 -18.162193 17.733767 2.006841 0.176176 1.529225 6.474780 6.454757 -5.964865 1.003953 3.242232 -1.034897 0.971032 -1.047767 -17.804871 -9.591701 5.461848 -32.349415 1.031338 -4.724125 -15.276610 -5.248100 2.307234 -3.912335 -18.070941 2.618585 -5.675968 -52.586637 12.464365 -0.479979 -13.559034 -15.027639 -3.114607 -8.955769 17.978418 18.576607 -2.673899 26.680792 3.402323 10.873530 -34.472910 62.959959 -40.740316 -6.831861 8.003995 -33.687263 12.877386 6.026666 -3.997946 
0.248538 -0.024986 -0.005139 173.340993 27.191124 -15.470704 2.096460 6.022199 9.682468 -3.069311 -4.443919 -7.082026 -6.095724 18.428633 -7.141154 7.053673 -1.309409 3.165409 1.865773 1.271162 0.192795 3.974503 12.512719 -3.160878 13.277983 -15.013810 -6.508099 -18.512611 17.546317 3.150728 0.863767 -0.044446 6.354007 5.876279 -6.511606 0.198169 2.705163 -2.353039 1.203196 -1.036690 -21.908964 -9.806376 6.405202 -31.331364 -0.183178 -7.818502 -13.994759 -3.975104 -0.195557 -4.625801 -14.991763 2.926212 -10.710113 -47.437341 11.077370 -2.009463 -14.967193 -15.425617 -2.991830 -9.141946 16.338441 14.425792 -2.675911 19.778032 -2.350203 8.829886 -36.403520 64.403200 -44.375467 -6.684447 9.207796 -34.449721 12.845797 5.556451 -4.104745 
0.248983 -0.024795 -0.004236 173.727232 24.770783 -15.194512 1.986763 6.292312 9.890319 -3.126818 -2.400631 -6.916675 -5.132628 18.726061 -7.161611 6.329541 -1.908905 2.133060 2.139104 1.768030 -0.207317 3.981091 13.422093 -2.553009 13.848214 -13.945458 -6.589405 -19.411849 17.172528 3.537316 1.039526 -0.903790 5.965006 5.695649 -7.104001 0.812869 2.458061 -3.053476 1.131895 -1.296446 -24.629946 -10.213071 7.579506 -30.547770 -0.921418 -10.137072 -15.015399 -2.887790 -5.915723 -8.797828 -12.192634 5.159237 -18.072026 -44.662459 11.807104 -1.714061 -21.153426 -17.027459 -3.508905 -7.393642 15.707680 12.970315 -1.121776 19.056526 -5.681609 6.706551 -44.536569 60.980757 -54.706535 -6.919970 8.633182 -35.421152 13.974234 6.049400 -5.121512 
0.248523 -0.025145 -0.002578 173.740653 22.857473 -14.744113 2.149771 6.733490 9.896218 -3.038283 -0.476003 -7.071136 -6.364734 19.204771 -8.333720 8.695231 -5.329285 2.177513 2.467824 2.775879 -0.535241 3.983910 12.561642 -2.537692 13.412183 -11.310571 -6.224801 -17.122080 13.486661 6.493920 0.041477 -1.463854 5.041133 6.806056 -8.169392 1.396276 2.758890 -3.840746 0.268473 -1.200009 -24.797331 -9.842001 7.646378 -31.355111 -1.301599 -9.248500 -15.889180 -0.081214 -14.252133 -13.381223 -1.338989 1.323047 -35.658674 -31.915122 10.348180 -2.902882 -41.430262 -19.911853 -2.229577 -7.893061 14.518799 11.851711 -0.398910 23.160426 -2.940097 1.723540 -52.319753 48.924088 -76.765901 -7.159662 7.222716 -67.834886 15.385027 4.686818 -5.855584 
0.248268 -0.026096 0.000147 173.605873 21.759845 -13.215980 2.412439 5.663914 8.548180 -3.394187 2.624267 -6.932888 -4.971996 19.646544 -8.218302 8.675328 -8.151786 0.368607 3.057222 3.628806 -1.862883 3.540947 9.666440 -2.698409 11.755908 -4.979178 -3.514308 -12.545142 2.302198 7.797129 -0.977485 -2.431517 3.916702 7.716866 -9.178424 0.165492 2.457390 -4.554400 0.539775 -2.363638 -26.588642 -5.339230 11.912917 -30.515930 -5.747843 -0.528784 -12.552171 2.344563 -29.890332 -20.926630 10.952984 10.220611 -67.159402 -20.914625 12.605380 -5.297318 -72.505359 -16.364746 2.701497 0.732936 5.144813 5.749304 1.408033 36.962418 1.590126 -0.703947 -61.971046 36.448503 -84.484099 -10.701945 2.868468 -88.685228 14.000939 2.409793 -3.811987 
0.248441 -0.026188 0.003940 174.105226 18.443013 -12.034568 2.199239 5.223402 8.143567 -3.373963 4.601221 -7.353582 -6.173991 20.342915 -8.425141 10.796182 -8.410466 -1.505564 3.220950 4.176487 -3.186447 3.785101 11.330374 -2.139338 14.704969 -6.461637 -4.373085 -17.342425 7.564715 7.669168 -0.984989 -3.839907 3.585123 7.526540 -9.648192 0.726635 2.728698 -5.357484 0.630002 -2.406242 -26.189902 -9.120548 10.337582 -30.712728 -3.105005 -2.675855 -13.339936 1.301433 -32.572875 -22.564733 15.193461 77.627243 -85.226778 -84.043063 12.711617 -5.416562 -74.167771 -19.302434 0.756434 1.447748 7.999442 4.746124 1.177436 31.590834 -3.591193 -3.012034 -64.829371 36.393290 -91.398684 -8.636334 3.644318 -83.410259 15.594384 4.130728 -6.415150 
0.247992 -0.026259 0.006880 174.850537 14.328653 -11.073043 2.072219 5.924307 8.369864 -3.478441 7.282419 -7.435357 -4.599426 20.513883 -7.859254 9.011127 -6.662460 -2.688063 3.522282 4.773820 -3.624371 4.069167 12.817373 -2.062279 14.766134 -5.148365 -3.516408 -16.673246 8.223294 7.611509 -0.418927 -5.255226 2.642163 6.916150 -10.101456 0.536188 2.321148 -6.228444 0.877654 -2.971152 -25.944444 -8.741298 9.363216 -27.760120 -2.314322 -3.787959 -15.397379 0.049057 -39.230501 -28.928120 18.356876 116.527687 -83.905151 -122.055990 12.621283 -3.547177 -76.573916 -18.622965 0.742384 4.241042 6.790244 4.927805 1.140605 29.914234 -1.743752 -2.702834 -62.003009 36.827716 -90.017630 -8.045991 1.876124 -81.544457 15.819848 4.446669 -6.602520 
